<?xml version="1.0" encoding="UTF-8"?>
<svg id="logo-iarmy" xmlns="http://www.w3.org/2000/svg" viewBox="0 0 139.61 327.81">
  <defs>
    <style>
      .logo-body { fill: #fff; stroke: #fff; stroke-miterlimit: 10; }
      .logo-shadow { fill: #cecdd1; stroke-miterlimit: 10; }
      .logo-shadow-stroke { fill: #cecdd1; stroke: #cecdd1; stroke-miterlimit: 10; }
      .logo-helmet-band { fill: #FF6B35; stroke: #FF6B35; stroke-miterlimit: 10; }
    </style>
  </defs>

  <!-- 1. Corps du "i" (en bas, derrière tout) -->
  <g id="i-body">
    <path class="logo-body" d="M85.32,142.54c-2.41.32-5.05.57-7.21.96-8.54,1.56-33.88,6.95-43.99,9.8-12.24,3.46-13.3,11.97-14.1,17.56-.8,5.59,1.41,17.88,11.17,17.88,8.54,0,8.25,10.59,8.25,10.59,0,0,.14,68.63,0,84.86-.16,17.89-10.64,17.82-10.64,17.82,0,0-7.71,0-7.71,12.24,0,13.39,14.1,13.03,14.1,13.03h85.12c10.91,0,11.7-14.63,11.7-14.63,0,0,1.6-13.83-10.64-13.83-8.78,0-8.25-15.69-8.25-15.69v-112.79s1.05-15.65-4.69-20.55c-7.08-6.86-15.9-8.21-23.11-7.24Z"/>
    <path class="logo-shadow" d="M51.63,148.52c-15.07,6.79-15.86,21.93-15.86,21.93,0,0-1.5,12.05,11.76,14.95,6.69,1.42,6.63,13.69,6.63,13.69v85.37c0,16.21-8.04,17.97-8.04,17.97,0,0-7.31.55-7.31,12.31,0,13.47,11.31,13.07,11.31,13.07h-14.97s-14.9.36-14.89-13.11c0-12.31,7.71-13.2,7.71-13.2,0,0,10.92.15,10.92-17.04v-85.37s.24-9.76-7.67-9.76c-10.37,0-12.68-13.36-11.88-18.98.8-5.62,2.46-14.33,14.77-17.81l17.49-4.02Z"/>
  </g>

  <!-- 2. Tête (cercle - le "point" du i) -->
  <g id="i-head">
    <circle class="logo-body" cx="71.97" cy="86.29" r="47.78"/>
    <!-- Ombres sur la tête -->
    <path class="logo-shadow-stroke" d="M28.09,105.24c-2.51-5.81-3.9-12.22-3.9-18.95,0-26.39,21.39-47.78,47.78-47.78,21.31,0,39.36,13.95,45.52,33.22,0,0-57.76-3.29-89.39,33.5Z"/>
    <path class="logo-shadow" d="M11.18,94.6c7.57,0,22.75-16.13,22.75-16.13,0,0,9.63-8.94,22.45-13.62,0,0-15.61,5.19-20.22,5.09-5.54-.13-18.51-29.21,3.34-53.81-18.29,6.35-31.42,23.73-31.42,44.18,0,0,.43,7.31,1.24,10.76,0,0,2.7,9.61,1.85,23.53Z"/>
    <path class="logo-shadow" d="M90.21,58.98c22.66-6.38,45.01-.4,37.63-3.02-8.45-2.99-7.62-11.85-7.62-11.85,0,0-3.34,4.39-30,14.86Z"/>
  </g>

  <!-- 3. Casque (par-dessus la tête, l'intègre visuellement) -->
  <g id="i-helmet">
    <!-- Visière blanche du casque (masque le haut de la tête) -->
    <path class="logo-body" d="M.66,106s-1.06-3.33,2.22-6.38c4.51-4.19-.15-23.54-.15-23.54-1.07-4.54-1.64-9.28-1.64-14.14C1.09,28.01,28.6.5,62.53.5c28.39,0,52.29,19.26,59.33,45.43,0,0,.69,6.19,7.75,9.4,4.72,2.14,9.06,4.39,9.43,7.55,0,0-22.99-6.11-65.67,3.07-25.04,4.53-39.22,19.55-39.22,19.55,0,0-23.43,24.08-33.47,20.51Z"/>
    <!-- Bande marron du casque (bord supérieur) -->
    <path class="logo-helmet-band" d="M.66,106c.84,4.08,18.82,3.64,28.44,2.78,44.27-4.52,100.5-34,107.13-40.41,2.2-2.13,2.98-3.92,2.8-5.49,0,0-22.99-6.11-65.67,3.07-25.04,4.53-39.22,19.55-39.22,19.55,0,0-23.43,24.08-33.47,20.51"/>
    <!-- Bande marron intérieure (détail) -->
    <path class="logo-helmet-band" d="M.66,106c10.04,3.58,33.47-20.51,33.47-20.51,0,0,14.19-15.02,39.22-19.55,42.68-9.18,65.67-3.07,65.67-3.07.14,1.18-.2,2.38-1.34,3.86l-.02.03c-5.59-1.12-27.75-4.42-64.31,3.45-25.04,4.53-39.22,19.55-39.22,19.55,0,0-13.82,14.38-24.79,19.32,0,0-8.43-.46-8.68-3.09Z"/>
  </g>
</svg>
